<?xml version="1.0" encoding="UTF-8" standalone="no"?>
<!DOCTYPE svg PUBLIC "-//W3C//DTD SVG 1.1//EN" "http://www.w3.org/Graphics/SVG/1.1/DTD/svg11.dtd">
<svg width="100%" height="100%" viewBox="0 0 897 179" version="1.1"
	xmlns="http://www.w3.org/2000/svg"
	xmlns:xlink="http://www.w3.org/1999/xlink" xml:space="preserve"
	xmlns:serif="http://www.serif.com/" style="fill-rule:evenodd;clip-rule:evenodd;stroke-linejoin:round;stroke-miterlimit:2;">
	<g transform="matrix(1,0,0,1,297.574,32.2129)">
		<path d="M0,114.235L0,0L76.048,0L76.048,19.011L21.143,19.011L21.143,46.218L72.441,46.218L72.441,65.066L21.143,65.066L21.143,95.223L76.048,95.223L76.048,114.235L0,114.235Z" style="fill:#F4AB65;fill-rule:nonzero;"/>
	</g>
	<g transform="matrix(1,0,0,1,437.374,65.6479)">
		<path d="M0,80.8L-1.64,68.672L-1.64,29.828C-1.64,25.022 -3.143,21.444 -6.146,19.093C-9.152,16.744 -13.222,15.57 -18.356,15.57C-22.618,15.57 -26.961,16.417 -31.387,18.11C-35.812,19.805 -39.72,22.182 -43.104,25.239L-53.431,11.308C-47.75,6.719 -41.932,3.415 -35.976,1.393C-30.021,-0.628 -23.602,-1.639 -16.718,-1.639C-5.572,-1.639 3.114,1.147 9.342,6.719C15.57,12.291 18.684,19.994 18.684,29.828L18.684,80.8L0,80.8ZM-24.421,82.439C-30.321,82.439 -35.594,81.346 -40.236,79.161C-44.882,76.977 -48.542,73.863 -51.218,69.819C-53.896,65.778 -55.233,61.132 -55.233,55.888C-55.233,51.192 -54.278,47.176 -52.365,43.841C-50.455,40.51 -47.914,37.969 -44.744,36.22C-42.014,34.581 -38.981,33.434 -35.647,32.779C-32.316,32.123 -28.738,31.795 -24.912,31.795L0.164,31.795L0.164,46.873L-21.962,46.873C-23.711,46.873 -25.433,47.012 -27.125,47.283C-28.82,47.557 -30.268,48.185 -31.469,49.168C-32.562,49.934 -33.381,50.889 -33.927,52.036C-34.475,53.184 -34.746,54.469 -34.746,55.888C-34.746,58.948 -33.545,61.406 -31.141,63.263C-28.738,65.122 -25.515,66.049 -21.471,66.049C-17.865,66.049 -14.562,65.258 -11.555,63.673C-8.551,62.09 -6.146,59.904 -4.344,57.117C-2.541,54.331 -1.64,51.135 -1.64,47.529L3.77,58.346C2.348,64.029 0.189,68.646 -2.704,72.196C-5.601,75.747 -8.907,78.342 -12.62,79.981C-16.336,81.619 -20.27,82.439 -24.421,82.439" style="fill:#F4AB65;fill-rule:nonzero;"/>
	</g>
	<g transform="matrix(1,0,0,1,469.332,64.0089)">
		<path d="M0,82.439L0,1.638L20.486,1.638L20.486,23.6L17.373,23.928C17.7,19.231 19.119,15.078 21.634,11.472C24.146,7.867 27.232,5.054 30.894,3.032C34.554,1.011 38.295,0 42.121,0C44.851,0 47.447,0.355 49.906,1.065C52.364,1.777 54.905,2.95 57.527,4.588L47.693,22.945C46.49,22.29 44.961,21.69 43.104,21.142C41.245,20.596 39.389,20.323 37.532,20.323C35.345,20.323 33.242,20.707 31.222,21.469C29.199,22.235 27.396,23.436 25.813,25.076C24.229,26.714 22.945,28.901 21.962,31.631C21.523,33.163 21.168,35.101 20.896,37.45C20.622,39.8 20.486,43.214 20.486,47.693L20.486,82.439L0,82.439Z" style="fill:#F4AB65;fill-rule:nonzero;"/>
	</g>
	<g transform="matrix(1,0,0,1,533.415,64.0089)">
		<path d="M0,82.439L0,1.638L20.486,1.638L20.486,19.995L17.209,20.323C18.627,15.406 20.704,11.472 23.437,8.522C26.167,5.572 29.337,3.416 32.942,2.048C36.549,0.683 40.262,0 44.088,0C53.266,0 60.449,2.596 65.64,7.785C70.828,12.975 73.425,20.269 73.425,29.665L73.425,82.439L52.938,82.439L52.938,37.204C52.938,30.43 51.734,25.485 49.332,22.371C46.928,19.257 43.158,17.7 38.023,17.7C34.09,17.7 30.838,18.601 28.271,20.404C25.703,22.208 23.765,25.022 22.453,28.845C21.143,32.67 20.486,37.641 20.486,43.759L20.486,82.439L0,82.439Z" style="fill:#F4AB65;fill-rule:nonzero;"/>
	</g>
	<g transform="matrix(1,0,0,1,636.833,65.6469)">
		<path d="M0,80.801L-24.912,0L-3.278,0L10.325,49.66L24.912,0L42.449,0L57.036,49.333L70.803,0L92.602,0L67.525,80.801L49.333,80.801L33.763,28.846L18.521,80.801L0,80.801Z" style="fill:#0C0C0C;fill-rule:nonzero;"/>
	</g>
	<g transform="matrix(1,0,0,1,787.782,109.407)">
		<path d="M0,-6.72C0.218,-7.593 0.41,-8.466 0.574,-9.342C0.738,-10.215 0.82,-11.034 0.82,-11.8C0.82,-14.095 0.382,-16.251 -0.491,-18.274C-1.367,-20.295 -2.568,-22.07 -4.097,-23.601C-5.628,-25.129 -7.457,-26.305 -9.588,-27.124C-11.718,-27.944 -14.151,-28.354 -16.881,-28.354C-20.925,-28.354 -24.312,-27.534 -27.042,-25.896C-29.774,-24.256 -31.823,-22.152 -33.188,-19.585C-34.556,-17.017 -35.401,-14.366 -35.729,-11.636L6.884,-11.636L0,-6.72ZM-16.062,38.679C-23.055,38.679 -29.065,37.532 -34.09,35.238C-39.117,32.943 -43.242,29.857 -46.464,25.978C-49.688,22.1 -52.064,17.676 -53.594,12.702C-55.125,7.731 -55.888,2.515 -55.888,-2.949C-55.888,-8.195 -55.125,-13.329 -53.594,-18.356C-52.064,-23.38 -49.771,-27.916 -46.71,-31.959C-43.652,-36 -39.69,-39.253 -34.827,-41.711C-29.967,-44.17 -24.148,-45.399 -17.373,-45.399C-11.037,-45.399 -5.519,-44.333 -0.819,-42.203C3.878,-40.073 7.757,-37.122 10.817,-33.353C13.875,-29.583 16.198,-25.184 17.783,-20.159C19.366,-15.132 20.159,-9.778 20.159,-4.097C20.159,-3.331 20.132,-2.266 20.078,-0.902C20.021,0.467 19.886,1.913 19.668,3.442L-35.565,3.442C-35.02,9.235 -32.86,13.603 -29.091,16.553C-25.321,19.504 -20.597,20.979 -14.914,20.979C-10.763,20.979 -6.72,20.241 -2.786,18.766C1.147,17.292 4.644,15.189 7.703,12.457L17.865,26.223C14.039,29.174 10.434,31.579 7.048,33.435C3.66,35.295 0.136,36.631 -3.523,37.451C-7.186,38.27 -11.365,38.679 -16.062,38.679" style="fill:#0C0C0C;fill-rule:nonzero;"/>
	</g>
	<g transform="matrix(1,0,0,1,856.452,50.897)">
		<path d="M0,78.506C4.041,78.506 7.512,77.551 10.407,75.638C13.302,73.727 15.57,71.023 17.209,67.525C18.849,64.029 19.668,59.878 19.668,55.069C19.668,50.262 18.849,46.136 17.209,42.694C15.57,39.253 13.302,36.576 10.407,34.663C7.512,32.753 4.041,31.795 0,31.795C-3.934,31.795 -7.35,32.753 -10.243,34.663C-13.14,36.576 -15.381,39.28 -16.963,42.777C-18.548,46.275 -19.34,50.372 -19.34,55.069C-19.34,59.768 -18.548,63.865 -16.963,67.36C-15.381,70.859 -13.14,73.589 -10.243,75.556C-7.35,77.523 -3.934,78.506 0,78.506M5.572,97.19C1.529,97.19 -2.376,96.396 -6.146,94.814C-9.915,93.231 -13.222,90.552 -16.062,86.782C-18.904,83.013 -21.035,77.96 -22.453,71.622L-17.537,73.916L-17.537,95.551L-37.859,95.551L-37.859,-18.684L-17.537,-18.684L-17.537,36.548L-21.798,37.86C-20.814,32.287 -18.986,27.672 -16.308,24.01C-13.631,20.351 -10.382,17.618 -6.556,15.816C-2.732,14.013 1.312,13.111 5.572,13.111C11.908,13.111 17.701,14.778 22.945,18.11C28.19,21.444 32.342,26.223 35.401,32.451C38.46,38.679 39.991,46.218 39.991,55.069C39.991,63.046 38.623,70.229 35.894,76.621C33.161,83.013 29.199,88.04 24.011,91.699C18.82,95.361 12.674,97.19 5.572,97.19" style="fill:#0C0C0C;fill-rule:nonzero;"/>
	</g>
	<g transform="matrix(0,-1,-1,0,42.59,0)">
		<path d="M-42.59,-42.59C-66.112,-42.59 -85.18,-23.522 -85.18,0C-85.18,23.522 -66.112,42.59 -42.59,42.59C-19.068,42.59 0,23.522 0,0C0,-23.522 -19.068,-42.59 -42.59,-42.59" style="fill:#F4AB65;fill-rule:nonzero;"/>
	</g>
	<g transform="matrix(1,0,0,1,141.587,70.4021)">
		<path d="M0,38.062L0,90.778C0,106.503 19.012,114.378 30.131,103.259L103.08,30.31C111.119,22.271 115.635,11.368 115.635,-0L115.635,-52.716C115.635,-68.441 96.623,-76.316 85.504,-65.197L12.555,7.752C4.516,15.791 0,26.694 0,38.062" style="fill:#0C0C0C;fill-rule:nonzero;"/>
	</g>
	<g transform="matrix(1,0,0,1,46.0799,70.4021)">
		<path d="M0,38.062L0,90.778C0,106.503 19.012,114.378 30.131,103.259L103.08,30.31C111.119,22.271 115.635,11.368 115.635,-0L115.635,-52.716C115.635,-68.441 96.623,-76.316 85.504,-65.197L12.555,7.752C4.516,15.791 0,26.694 0,38.062" style="fill:#0C0C0C;fill-rule:nonzero;"/>
	</g>
</svg>
